<svg xmlns="http://www.w3.org/2000/svg" xmlns:xlink="http://www.w3.org/1999/xlink" viewBox="0 0 9.07 9.07"><defs><style>.cls-1,.cls-4{fill:none;}.cls-2{clip-path:url(#clip-path);}.cls-3{fill:#11b3c9;}.cls-4{stroke:#009db2;stroke-miterlimit:10;stroke-width:0.7px;}.cls-5{clip-path:url(#clip-path-2);}.cls-6{fill:#fff;}</style><clipPath id="clip-path" transform="translate(0.35 0.35)"><path class="cls-1" d="M0,4.19A4.19,4.19,0,1,0,4.19,0,4.2,4.2,0,0,0,0,4.19"/></clipPath><clipPath id="clip-path-2" transform="translate(0.35 0.35)"><path class="cls-1" d="M2.79,4.19a1.4,1.4,0,1,0,1.4-1.4,1.4,1.4,0,0,0-1.4,1.4"/></clipPath></defs><title>radiobuttonchecked</title><g id="Layer_2" data-name="Layer 2"><g id="Layer_1-2" data-name="Layer 1"><g class="cls-2"><path class="cls-3" d="M4.19,8.38A4.19,4.19,0,1,0,0,4.19,4.2,4.2,0,0,0,4.19,8.38" transform="translate(0.35 0.35)"/><path class="cls-4" d="M4.19,8.38A4.19,4.19,0,1,0,0,4.19,4.2,4.2,0,0,0,4.19,8.38Z" transform="translate(0.35 0.35)"/></g><g class="cls-5"><rect class="cls-6" x="1.4" y="1.4" width="6.28" height="6.28"/></g></g></g></svg>