<svg xmlns="http://www.w3.org/2000/svg" width="32" height="31" viewBox="0 0 32 31">
  <path fill="#FBDD0F" fill-rule="evenodd" d="M31.9717963,11.7982266 C31.9042073,11.5874192 31.7249244,11.4336812 31.508983,11.4016524 L21.1472349,9.87067822 L16.513374,0.324946221 C16.4171455,0.125785634 16.217815,0 16.0001553,0 C15.7824956,0 15.5825923,0.125785634 15.4869366,0.324946221 L10.852503,9.87126056 L0.49075476,11.4022348 C0.274813408,11.4342635 0.0961033228,11.5874192 0.0279414635,11.7988089 C-0.0390748183,12.009034 0.0164856888,12.2408057 0.172857013,12.395126 L7.67123432,19.8257959 L5.90074435,30.3184142 C5.86408587,30.536792 5.95229533,30.7574992 6.12814148,30.8879436 C6.30513319,31.0195526 6.53940379,31.0364405 6.73128801,30.9322015 L16.0001553,25.9788098 L25.267877,30.9322015 C25.3515042,30.9770417 25.4437231,30.9991707 25.5347966,30.9991707 C25.6533638,30.9991707 25.7713583,30.9619009 25.8715963,30.8879436 C26.0480153,30.7574992 26.1362247,30.536792 26.0989935,30.3184142 L24.3290763,19.8263782 L31.8274536,12.395126 C31.9832521,12.239641 32.0393854,12.0084517 31.9717963,11.7982266 Z"/>
</svg>
