<svg xmlns="http://www.w3.org/2000/svg" width="34" height="32" viewBox="0 0 34 32">
  <path fill="#FBDD0F" d="M6.85282143,31.7321481 C6.72714286,31.7321481 6.60146429,31.6942222 6.49582143,31.618963 C6.30882143,31.4862222 6.21532143,31.2616296 6.25478571,31.0394074 L8.13146429,20.3620741 L0.183357143,12.8011852 C0.0182142857,12.6435556 -0.0412857143,12.4082963 0.02975,12.1943704 C0.101392857,11.9798519 0.291428571,11.8234074 0.520321429,11.7908148 L11.5035357,10.2328889 L16.4159286,0.518518519 C16.5179286,0.315851852 16.7292143,0.187851852 16.9599286,0.187851852 L16.9599286,0.187851852 C17.19125,0.187851852 17.4025357,0.315851852 17.5039286,0.518518519 L22.4157143,10.2328889 L33.3995357,11.7908148 C33.6284286,11.8234074 33.8178571,11.9792593 33.8901071,12.1943704 C33.9611429,12.4082963 33.90225,12.6441481 33.7365,12.8011852 L25.7883929,20.3632593 L27.6644643,31.04 C27.7033214,31.2622222 27.6098214,31.4868148 27.4234286,31.6195556 C27.2364286,31.7534815 26.9881071,31.7706667 26.7835,31.6645926 L16.9599286,26.624 L7.13514286,31.6645926 C7.0465,31.7096296 6.94935714,31.7321481 6.85282143,31.7321481 Z M1.91189286,12.7905185 L9.20732143,19.7315556 C9.35,19.8672593 9.41557143,20.064 9.38157143,20.256 L7.65910714,30.0562963 L16.6776071,25.4293333 C16.8542857,25.3380741 17.0649643,25.3380741 17.2428571,25.4293333 L26.2601429,30.0562963 L24.5382857,20.256 C24.5042857,20.064 24.5698571,19.8678519 24.7125357,19.7315556 L32.0079643,12.7905185 L21.9263571,11.3605926 C21.7284286,11.3327407 21.5578214,11.2112593 21.4691786,11.0364444 L16.9599286,2.1202963 L12.4506786,11.037037 C12.3620357,11.2118519 12.1914286,11.3333333 11.9935,11.3611852 L1.91189286,12.7905185 Z"/>
</svg>
